<svg width="45" height="47" viewBox="0 0 45 47" fill="none" xmlns="http://www.w3.org/2000/svg">
<path d="M28.5508 43.9674C25.3562 47.4838 19.7349 47.5175 16.4979 44.0396C15.0521 42.4862 16.1751 39.9977 18.3277 39.9848L26.672 39.9348C28.8246 39.9219 29.9777 42.3968 28.5508 43.9674Z" fill="white"/>
<path fill-rule="evenodd" clip-rule="evenodd" d="M36.4097 39.6483C34.725 40.9572 32.3457 40.5248 30.9195 38.9449L26.3882 33.9252C24.562 31.9022 21.3564 31.9022 19.5302 33.9252L14.626 39.3579C13.2357 40.898 10.934 41.3549 9.24573 40.1387C3.64119 36.1013 0 29.5694 0 22.1986C0 9.93857 10.0736 -0.00012207 22.5 -0.00012207C34.9264 -0.00012207 45 9.93857 45 22.1986C45 29.278 41.641 35.5835 36.4097 39.6483ZM15.7073 24.6852L19.96 29.6504C21.3107 31.2274 23.6893 31.2274 25.04 29.6504L29.2927 24.6852C30.6579 23.0914 29.9539 20.5689 27.9781 19.9742C24.4001 18.8972 20.5999 18.8972 17.0219 19.9742C15.0461 20.5689 14.3421 23.0914 15.7073 24.6852ZM15.8333 14.1665C15.8333 16.0074 14.341 17.4998 12.5 17.4998C10.6591 17.4998 9.16667 16.0074 9.16667 14.1665C9.16667 12.3255 10.6591 10.8331 12.5 10.8331C14.341 10.8331 15.8333 12.3255 15.8333 14.1665ZM32.5 17.4998C34.341 17.4998 35.8333 16.0074 35.8333 14.1665C35.8333 12.3255 34.341 10.8331 32.5 10.8331C30.6591 10.8331 29.1667 12.3255 29.1667 14.1665C29.1667 16.0074 30.6591 17.4998 32.5 17.4998Z" fill="white"/>
</svg>
